<mxfile host="app.diagrams.net" modified="2021-03-20T18:15:23.667Z" agent="5.0 (Windows NT 10.0; Win64; x64) AppleWebKit/537.36 (KHTML, like Gecko) Chrome/89.0.4389.90 Safari/537.36 Edg/89.0.774.54" etag="EzrB3RtNdNtYJo2v3rfc" version="14.4.9" type="github">
  <diagram id="rFoNy7gR2mEutnqWpagt" name="第 1 页">
    <mxGraphModel dx="981" dy="526" grid="1" gridSize="10" guides="1" tooltips="1" connect="1" arrows="1" fold="1" page="1" pageScale="1" pageWidth="827" pageHeight="1169" math="0" shadow="0">
      <root>
        <mxCell id="0" />
        <mxCell id="1" parent="0" />
        <mxCell id="s4AjxU-MPj-kAaDSc7QD-1" value="" style="rounded=1;whiteSpace=wrap;html=1;fillColor=#1ba1e2;strokeColor=#006EAF;fontColor=#ffffff;gradientColor=#ffffff;" vertex="1" parent="1">
          <mxGeometry x="210" y="160" width="230" height="80" as="geometry" />
        </mxCell>
        <mxCell id="s4AjxU-MPj-kAaDSc7QD-2" value="core" style="rounded=1;whiteSpace=wrap;html=1;fillColor=#fff2cc;strokeColor=#d6b656;" vertex="1" parent="1">
          <mxGeometry x="230" y="190" width="60" height="30" as="geometry" />
        </mxCell>
        <mxCell id="s4AjxU-MPj-kAaDSc7QD-3" value="CPU" style="text;html=1;strokeColor=#6c8ebf;fillColor=#dae8fc;align=center;verticalAlign=middle;whiteSpace=wrap;rounded=0;gradientColor=#ffffff;" vertex="1" parent="1">
          <mxGeometry x="305" y="170" width="40" height="20" as="geometry" />
        </mxCell>
        <mxCell id="s4AjxU-MPj-kAaDSc7QD-4" value="" style="rounded=0;whiteSpace=wrap;html=1;sketch=0;fillColor=#bac8d3;strokeColor=#23445d;gradientColor=#ffffff;" vertex="1" parent="1">
          <mxGeometry x="210" y="280" width="230" height="270" as="geometry" />
        </mxCell>
        <mxCell id="s4AjxU-MPj-kAaDSc7QD-5" value="" style="rounded=0;whiteSpace=wrap;html=1;sketch=0;gradientColor=#ffffff;" vertex="1" parent="1">
          <mxGeometry x="225" y="307.5" width="65" height="192.5" as="geometry" />
        </mxCell>
        <mxCell id="s4AjxU-MPj-kAaDSc7QD-6" value="指令" style="text;html=1;strokeColor=none;fillColor=none;align=center;verticalAlign=middle;whiteSpace=wrap;rounded=0;sketch=0;" vertex="1" parent="1">
          <mxGeometry x="237.25" y="330" width="40" height="20" as="geometry" />
        </mxCell>
        <mxCell id="s4AjxU-MPj-kAaDSc7QD-7" value="指令" style="text;html=1;strokeColor=none;fillColor=none;align=center;verticalAlign=middle;whiteSpace=wrap;rounded=0;sketch=0;" vertex="1" parent="1">
          <mxGeometry x="237.25" y="350" width="40" height="20" as="geometry" />
        </mxCell>
        <mxCell id="s4AjxU-MPj-kAaDSc7QD-8" value="指令" style="text;html=1;strokeColor=none;fillColor=none;align=center;verticalAlign=middle;whiteSpace=wrap;rounded=0;sketch=0;" vertex="1" parent="1">
          <mxGeometry x="237.25" y="370" width="40" height="20" as="geometry" />
        </mxCell>
        <mxCell id="s4AjxU-MPj-kAaDSc7QD-9" value="指令" style="text;html=1;strokeColor=none;fillColor=none;align=center;verticalAlign=middle;whiteSpace=wrap;rounded=0;sketch=0;" vertex="1" parent="1">
          <mxGeometry x="237.25" y="390" width="40" height="20" as="geometry" />
        </mxCell>
        <mxCell id="s4AjxU-MPj-kAaDSc7QD-10" value="指令" style="text;html=1;strokeColor=none;fillColor=none;align=center;verticalAlign=middle;whiteSpace=wrap;rounded=0;sketch=0;" vertex="1" parent="1">
          <mxGeometry x="237.25" y="410" width="40" height="20" as="geometry" />
        </mxCell>
        <mxCell id="s4AjxU-MPj-kAaDSc7QD-11" value="指令" style="text;html=1;strokeColor=none;fillColor=none;align=center;verticalAlign=middle;whiteSpace=wrap;rounded=0;sketch=0;" vertex="1" parent="1">
          <mxGeometry x="237.25" y="430" width="40" height="20" as="geometry" />
        </mxCell>
        <mxCell id="s4AjxU-MPj-kAaDSc7QD-12" value="指令" style="text;html=1;strokeColor=none;fillColor=none;align=center;verticalAlign=middle;whiteSpace=wrap;rounded=0;sketch=0;" vertex="1" parent="1">
          <mxGeometry x="237.75" y="450" width="40" height="20" as="geometry" />
        </mxCell>
        <mxCell id="s4AjxU-MPj-kAaDSc7QD-13" value="指令" style="text;html=1;strokeColor=none;fillColor=none;align=center;verticalAlign=middle;whiteSpace=wrap;rounded=0;sketch=0;" vertex="1" parent="1">
          <mxGeometry x="237.25" y="470" width="40" height="20" as="geometry" />
        </mxCell>
        <mxCell id="s4AjxU-MPj-kAaDSc7QD-15" value="线程1" style="text;html=1;strokeColor=none;fillColor=none;align=center;verticalAlign=middle;whiteSpace=wrap;rounded=0;sketch=0;" vertex="1" parent="1">
          <mxGeometry x="230" y="510" width="52.75" height="30" as="geometry" />
        </mxCell>
        <mxCell id="s4AjxU-MPj-kAaDSc7QD-16" value="" style="rounded=0;whiteSpace=wrap;html=1;sketch=0;gradientColor=#ffffff;" vertex="1" parent="1">
          <mxGeometry x="349" y="307.5" width="65" height="192.5" as="geometry" />
        </mxCell>
        <mxCell id="s4AjxU-MPj-kAaDSc7QD-17" value="指令" style="text;html=1;strokeColor=none;fillColor=none;align=center;verticalAlign=middle;whiteSpace=wrap;rounded=0;sketch=0;" vertex="1" parent="1">
          <mxGeometry x="361.25" y="330" width="40" height="20" as="geometry" />
        </mxCell>
        <mxCell id="s4AjxU-MPj-kAaDSc7QD-18" value="指令" style="text;html=1;strokeColor=none;fillColor=none;align=center;verticalAlign=middle;whiteSpace=wrap;rounded=0;sketch=0;" vertex="1" parent="1">
          <mxGeometry x="361.25" y="350" width="40" height="20" as="geometry" />
        </mxCell>
        <mxCell id="s4AjxU-MPj-kAaDSc7QD-19" value="指令" style="text;html=1;strokeColor=none;fillColor=none;align=center;verticalAlign=middle;whiteSpace=wrap;rounded=0;sketch=0;" vertex="1" parent="1">
          <mxGeometry x="361.25" y="370" width="40" height="20" as="geometry" />
        </mxCell>
        <mxCell id="s4AjxU-MPj-kAaDSc7QD-20" value="指令" style="text;html=1;strokeColor=none;fillColor=none;align=center;verticalAlign=middle;whiteSpace=wrap;rounded=0;sketch=0;" vertex="1" parent="1">
          <mxGeometry x="361.25" y="390" width="40" height="20" as="geometry" />
        </mxCell>
        <mxCell id="s4AjxU-MPj-kAaDSc7QD-21" value="指令" style="text;html=1;strokeColor=none;fillColor=none;align=center;verticalAlign=middle;whiteSpace=wrap;rounded=0;sketch=0;" vertex="1" parent="1">
          <mxGeometry x="361.25" y="410" width="40" height="20" as="geometry" />
        </mxCell>
        <mxCell id="s4AjxU-MPj-kAaDSc7QD-22" value="指令" style="text;html=1;strokeColor=none;fillColor=none;align=center;verticalAlign=middle;whiteSpace=wrap;rounded=0;sketch=0;" vertex="1" parent="1">
          <mxGeometry x="361.25" y="430" width="40" height="20" as="geometry" />
        </mxCell>
        <mxCell id="s4AjxU-MPj-kAaDSc7QD-23" value="指令" style="text;html=1;strokeColor=none;fillColor=none;align=center;verticalAlign=middle;whiteSpace=wrap;rounded=0;sketch=0;" vertex="1" parent="1">
          <mxGeometry x="361.75" y="450" width="40" height="20" as="geometry" />
        </mxCell>
        <mxCell id="s4AjxU-MPj-kAaDSc7QD-24" value="指令" style="text;html=1;strokeColor=none;fillColor=none;align=center;verticalAlign=middle;whiteSpace=wrap;rounded=0;sketch=0;" vertex="1" parent="1">
          <mxGeometry x="361.25" y="470" width="40" height="20" as="geometry" />
        </mxCell>
        <mxCell id="s4AjxU-MPj-kAaDSc7QD-25" value="线程2" style="text;html=1;strokeColor=none;fillColor=none;align=center;verticalAlign=middle;whiteSpace=wrap;rounded=0;sketch=0;" vertex="1" parent="1">
          <mxGeometry x="355.37" y="510" width="52.75" height="30" as="geometry" />
        </mxCell>
        <mxCell id="s4AjxU-MPj-kAaDSc7QD-33" value="" style="shape=flexArrow;endArrow=classic;html=1;endWidth=15.862068965517242;endSize=6.310344827586207;" edge="1" parent="1">
          <mxGeometry width="50" height="50" relative="1" as="geometry">
            <mxPoint x="230" y="240" as="sourcePoint" />
            <mxPoint x="270" y="300" as="targetPoint" />
            <Array as="points">
              <mxPoint x="260" y="220" />
            </Array>
          </mxGeometry>
        </mxCell>
      </root>
    </mxGraphModel>
  </diagram>
</mxfile>
